<svg width="18" height="18" viewBox="0 0 18 18" fill="none" xmlns="http://www.w3.org/2000/svg">
<path d="M12.7526 0C11.9133 0 11.1112 0.212114 10.3685 0.630491C9.86292 0.915233 9.39849 1.29355 9 1.74241C8.60148 1.29355 8.13708 0.915233 7.63152 0.630491C6.8888 0.212114 6.08667 0 5.24739 0C2.35399 0 0 2.59525 0 5.78523C0 8.04463 1.08234 10.4443 3.21692 12.9176C4.99918 14.9828 7.18122 16.7042 8.69786 17.7847L9 18L9.30214 17.7847C10.8188 16.7043 13.0008 14.9828 14.7831 12.9176C16.9177 10.4443 18 8.04463 18 5.78523C18 2.59525 15.646 0 12.7526 0ZM13.9765 12.0715C12.3837 13.9171 10.4435 15.4861 9 16.5362C7.55655 15.4861 5.61633 13.9171 4.02354 12.0715C2.09249 9.83405 1.1134 7.71905 1.1134 5.78523C1.1134 3.2721 2.96792 1.22751 5.24743 1.22751C6.55979 1.22751 7.76535 1.89213 8.5549 3.0509L9 3.70414L9.4451 3.0509C10.2347 1.89213 11.4402 1.22751 12.7526 1.22751C15.0321 1.22751 16.8866 3.2721 16.8866 5.78523C16.8866 7.71905 15.9075 9.83405 13.9765 12.0715Z" fill="black"/>
</svg>
