<svg width="27" height="27" viewBox="0 0 27 27" fill="none" xmlns="http://www.w3.org/2000/svg">
<path d="M13.4998 6.89041C9.84207 6.89041 6.89012 9.84237 6.89012 13.5001C6.89012 17.1578 9.84207 20.1098 13.4998 20.1098C17.1575 20.1098 20.1095 17.1578 20.1095 13.5001C20.1095 9.84237 17.1575 6.89041 13.4998 6.89041ZM13.4998 17.7959C11.1344 17.7959 9.20399 15.8655 9.20399 13.5001C9.20399 11.1347 11.1344 9.20428 13.4998 9.20428C15.8652 9.20428 17.7956 11.1347 17.7956 13.5001C17.7956 15.8655 15.8652 17.7959 13.4998 17.7959ZM20.3802 5.07928C19.5262 5.07928 18.8365 5.76893 18.8365 6.62293C18.8365 7.47694 19.5262 8.16659 20.3802 8.16659C21.2342 8.16659 21.9238 7.48016 21.9238 6.62293C21.9241 6.42015 21.8843 6.2193 21.8068 6.0319C21.7293 5.8445 21.6156 5.67423 21.4723 5.53084C21.3289 5.38745 21.1586 5.27375 20.9712 5.19627C20.7838 5.11878 20.5829 5.07903 20.3802 5.07928ZM26.384 13.5001C26.384 11.7212 26.4001 9.95838 26.3002 8.1827C26.2003 6.1202 25.7298 4.28973 24.2216 2.78153C22.7101 1.2701 20.8829 0.802814 18.8204 0.702912C17.0415 0.603009 15.2787 0.619123 13.503 0.619123C11.7241 0.619123 9.96131 0.603009 8.18563 0.702912C6.12313 0.802814 4.29266 1.27332 2.78445 2.78153C1.27303 4.29295 0.805744 6.1202 0.705841 8.1827C0.605939 9.96161 0.622052 11.7244 0.622052 13.5001C0.622052 15.2758 0.605939 17.0418 0.705841 18.8175C0.805744 20.88 1.27625 22.7104 2.78445 24.2186C4.29588 25.7301 6.12313 26.1974 8.18563 26.2973C9.96453 26.3972 11.7273 26.381 13.503 26.381C15.2819 26.381 17.0447 26.3972 18.8204 26.2973C20.8829 26.1974 22.7134 25.7268 24.2216 24.2186C25.733 22.7072 26.2003 20.88 26.3002 18.8175C26.4033 17.0418 26.384 15.279 26.384 13.5001ZM23.548 21.0991C23.3128 21.6856 23.0292 22.1239 22.5748 22.5751C22.1204 23.0295 21.6853 23.3131 21.0988 23.5483C19.4037 24.2219 15.3786 24.0704 13.4998 24.0704C11.621 24.0704 7.59266 24.2219 5.89754 23.5516C5.31102 23.3163 4.87274 23.0327 4.42156 22.5783C3.96717 22.1239 3.68358 21.6889 3.44832 21.1023C2.77801 19.404 2.92947 15.3789 2.92947 13.5001C2.92947 11.6213 2.77801 7.59295 3.44832 5.89784C3.68358 5.31131 3.96717 4.87303 4.42156 4.42186C4.87596 3.97069 5.31102 3.68387 5.89754 3.44862C7.59266 2.7783 11.621 2.92977 13.4998 2.92977C15.3786 2.92977 19.4069 2.7783 21.102 3.44862C21.6886 3.68387 22.1268 3.96746 22.578 4.42186C23.0324 4.87625 23.316 5.31131 23.5513 5.89784C24.2216 7.59295 24.0701 11.6213 24.0701 13.5001C24.0701 15.3789 24.2216 19.404 23.548 21.0991Z" fill="black"/>
</svg>
